<svg width="498" height="132" viewBox="0 0 498 132" fill="none" xmlns="http://www.w3.org/2000/svg">
<rect x="14" width="134" height="132" fill="#E08709"/>
<path d="M54.7258 108.352C53.3178 107.52 52.4217 106.624 52.0377 105.664C51.6537 104.768 51.4617 104 51.4617 103.36C51.4617 101.568 52.1017 99.136 53.3818 96.064C54.7258 92.992 56.4858 89.504 58.6618 85.6C60.9018 81.632 63.3658 77.536 66.0538 73.312C63.6858 73.12 61.6698 72.992 60.0058 72.928C58.3418 72.864 56.9018 72.832 55.6858 72.832H52.3257C53.0297 70.976 54.2458 69.696 55.9738 68.992C57.7658 68.224 59.8778 67.84 62.3098 67.84C63.3978 67.84 64.5178 67.904 65.6698 68.032C66.8218 68.16 68.0058 68.32 69.2218 68.512C72.4858 63.584 75.8138 58.816 79.2058 54.208C82.6618 49.536 85.8618 45.408 88.8058 41.824C91.8138 38.176 94.3098 35.424 96.2938 33.568C98.1498 31.776 99.6858 30.88 100.902 30.88C101.606 30.88 102.374 31.168 103.206 31.744C104.102 32.256 105.03 32.992 105.99 33.952C105.35 34.464 104.518 35.84 103.494 38.08C102.534 40.256 101.478 43.008 100.326 46.336C99.2378 49.664 98.1498 53.312 97.0618 57.28C95.9738 61.248 94.9498 65.312 93.9898 69.472C93.0938 73.568 92.3578 77.472 91.7818 81.184C91.2698 84.896 91.0138 88.16 91.0138 90.976C91.0138 93.408 91.2698 95.296 91.7818 96.64C92.3578 97.984 93.2858 98.656 94.5658 98.656C96.2298 98.656 98.1178 97.504 100.23 95.2C102.342 92.896 104.646 89.312 107.142 84.448L108.102 85.408C106.182 90.528 103.718 94.72 100.71 97.984C97.7658 101.248 94.6938 102.88 91.4938 102.88C88.8698 102.88 86.9498 101.728 85.7338 99.424C84.5818 97.056 84.0058 93.92 84.0058 90.016C84.0058 87.968 84.1338 85.728 84.3898 83.296C84.7098 80.864 85.1258 78.336 85.6378 75.712C82.8218 75.264 80.2298 74.912 77.8618 74.656C75.5578 74.336 73.4138 74.048 71.4298 73.792C68.4218 79.36 65.4778 85.088 62.5978 90.976C59.7818 96.864 57.1578 102.656 54.7258 108.352ZM86.3098 72.352C87.2698 68.128 88.3898 63.872 89.6698 59.584C90.9498 55.232 92.2938 51.104 93.7018 47.2C95.1738 43.296 96.5498 39.872 97.8298 36.928C95.8458 38.144 93.5418 40.32 90.9178 43.456C88.3578 46.528 85.6378 50.304 82.7578 54.784C79.8778 59.2 76.9338 64.064 73.9258 69.376C76.1018 69.824 78.2458 70.336 80.3578 70.912C82.5338 71.424 84.5178 71.904 86.3098 72.352Z" fill="white"/>
<path d="M184.873 100.48C184.041 100.48 183.369 100.352 182.857 100.096C182.345 99.904 182.089 99.616 182.089 99.232C182.089 98.784 182.345 98.4 182.857 98.08C183.433 97.696 184.233 97.344 185.257 97.024C186.921 96.512 188.457 95.744 189.865 94.72C191.273 93.696 192.489 92 193.513 89.632C195.305 85.536 196.937 81.696 198.409 78.112C199.945 74.528 201.385 71.008 202.729 67.552C204.073 64.096 205.449 60.512 206.857 56.8C208.329 53.024 209.865 48.928 211.465 44.512C211.785 43.616 212.073 42.72 212.329 41.824C212.585 40.928 212.745 39.968 212.809 38.944C213.385 38.752 213.961 38.56 214.537 38.368C215.113 38.176 215.689 37.888 216.265 37.504C216.841 37.12 217.225 36.544 217.417 35.776C217.673 35.008 217.897 34.496 218.089 34.24C218.153 34.176 218.217 34.144 218.281 34.144C218.409 34.144 218.505 34.208 218.569 34.336C218.697 34.592 218.793 34.912 218.857 35.296C218.985 35.68 219.113 36.064 219.241 36.448C220.777 41.312 222.377 46.272 224.041 51.328C225.705 56.384 227.305 61.28 228.841 66.016C230.441 70.688 231.881 74.912 233.161 78.688C234.505 82.4 235.561 85.408 236.329 87.712C237.225 90.272 238.185 92.192 239.209 93.472C240.233 94.752 241.289 95.648 242.377 96.16C243.529 96.672 244.745 97.056 246.025 97.312C247.113 97.504 247.913 97.824 248.425 98.272C248.937 98.656 249.193 99.072 249.193 99.52C249.193 99.904 248.937 100.16 248.425 100.288C247.913 100.416 247.241 100.48 246.409 100.48C245.513 100.48 244.297 100.416 242.761 100.288C241.225 100.224 239.593 100.128 237.865 100C236.137 99.936 234.537 99.904 233.065 99.904C231.849 99.904 230.601 99.904 229.321 99.904C228.041 99.904 226.857 99.936 225.769 100C224.681 100 223.753 100 222.985 100C222.153 100 221.481 99.904 220.969 99.712C220.457 99.52 220.201 99.232 220.201 98.848C220.201 98.4 220.521 98.016 221.161 97.696C221.801 97.376 222.537 97.152 223.369 97.024C225.481 96.704 226.985 96.16 227.881 95.392C228.777 94.624 229.225 93.728 229.225 92.704C229.225 91.744 229.001 90.368 228.553 88.576C228.169 86.72 227.689 84.768 227.113 82.72C226.537 80.608 225.993 78.752 225.481 77.152C225.353 76.64 225.097 76.352 224.713 76.288C224.393 76.16 223.785 76.096 222.889 76.096H204.745C204.489 76.096 204.201 76.224 203.881 76.48C203.625 76.672 203.369 77.12 203.113 77.824C202.921 78.464 202.601 79.488 202.153 80.896C201.705 82.24 201.257 83.68 200.809 85.216C200.361 86.752 199.977 88.128 199.657 89.344C199.337 90.56 199.177 91.328 199.177 91.648C199.177 93.056 199.721 94.24 200.809 95.2C201.897 96.096 203.209 96.736 204.745 97.12C206.857 97.696 207.913 98.336 207.913 99.04C207.913 99.424 207.657 99.712 207.145 99.904C206.633 100.032 205.961 100.096 205.129 100.096C204.297 100.096 203.081 100.064 201.481 100C199.881 99.936 198.185 99.904 196.393 99.904C194.281 99.904 192.233 100 190.249 100.192C188.265 100.384 186.473 100.48 184.873 100.48ZM207.337 72.928H222.217C223.113 72.928 223.561 72.768 223.561 72.448C223.561 72.32 223.529 72.192 223.465 72.064C223.465 71.872 223.433 71.68 223.369 71.488L215.881 48.064C215.497 46.912 215.209 46.336 215.017 46.336C214.889 46.336 214.633 46.88 214.249 47.968L205.513 71.488C205.385 71.872 205.321 72.128 205.321 72.256C205.321 72.576 205.481 72.768 205.801 72.832C206.185 72.896 206.697 72.928 207.337 72.928ZM252.494 100.288C252.174 100.288 251.758 100.224 251.246 100.096C250.798 100.032 250.574 99.808 250.574 99.424C250.574 98.912 250.798 98.56 251.246 98.368C251.758 98.112 252.27 97.888 252.782 97.696C253.742 97.376 254.67 97.024 255.566 96.64C256.462 96.192 256.91 95.328 256.91 94.048V45.664C256.91 43.808 256.558 42.272 255.854 41.056C255.214 39.776 254.094 38.976 252.494 38.656C251.982 38.528 251.726 38.112 251.726 37.408C251.726 36.768 251.95 36.384 252.398 36.256C254.062 35.872 255.502 35.488 256.718 35.104C257.934 34.656 259.054 34.208 260.078 33.76C261.166 33.312 262.222 32.896 263.246 32.512C263.502 32.384 263.694 32.32 263.822 32.32C263.95 32.32 264.046 32.416 264.11 32.608C264.238 32.736 264.302 32.864 264.302 32.992C264.302 33.568 264.174 34.816 263.918 36.736C263.726 38.592 263.63 41.696 263.63 46.048V94.048C263.63 95.328 264.078 96.192 264.974 96.64C265.87 97.024 266.798 97.376 267.758 97.696C268.27 97.888 268.75 98.112 269.198 98.368C269.71 98.56 269.966 98.912 269.966 99.424C269.966 99.808 269.71 100.032 269.198 100.096C268.75 100.224 268.366 100.288 268.046 100.288C266.83 100.288 265.838 100.224 265.07 100.096C264.366 100.032 263.662 99.968 262.958 99.904C262.318 99.84 261.422 99.808 260.27 99.808C259.182 99.808 258.286 99.84 257.582 99.904C256.878 99.968 256.174 100.032 255.47 100.096C254.766 100.224 253.774 100.288 252.494 100.288ZM276.037 100.288C275.461 100.288 274.981 100.192 274.597 100C274.277 99.872 274.117 99.616 274.117 99.232C274.117 98.72 274.341 98.368 274.789 98.176C275.301 97.984 275.813 97.824 276.325 97.696C277.669 97.376 278.693 96.992 279.397 96.544C280.101 96.032 280.453 95.2 280.453 94.048V73.216C280.453 71.488 280.133 69.952 279.493 68.608C278.917 67.264 277.797 66.464 276.133 66.208C275.813 66.144 275.557 66.016 275.365 65.824C275.237 65.632 275.173 65.344 275.173 64.96C275.173 64.256 275.461 63.872 276.037 63.808C278.597 63.232 280.709 62.464 282.373 61.504C284.037 60.48 285.285 59.648 286.117 59.008C286.693 58.56 287.141 58.336 287.461 58.336C287.845 58.336 288.037 58.496 288.037 58.816C288.037 59.328 287.941 60.352 287.749 61.888C287.621 63.36 287.493 65.024 287.365 66.88C287.237 68.672 287.173 70.304 287.173 71.776V94.048C287.173 95.136 287.525 95.936 288.229 96.448C288.997 96.96 290.021 97.376 291.301 97.696C291.813 97.824 292.293 97.984 292.741 98.176C293.253 98.368 293.509 98.72 293.509 99.232C293.509 99.936 292.869 100.288 291.589 100.288C290.373 100.288 289.381 100.224 288.613 100.096C287.909 100.032 287.205 99.968 286.501 99.904C285.861 99.84 284.965 99.808 283.812 99.808C282.725 99.808 281.829 99.84 281.125 99.904C280.421 99.968 279.717 100.032 279.013 100.096C278.309 100.224 277.317 100.288 276.037 100.288ZM283.717 50.464C282.373 50.464 281.221 50.016 280.261 49.12C279.365 48.16 278.917 47.008 278.917 45.664C278.917 44.256 279.365 43.104 280.261 42.208C281.221 41.248 282.373 40.768 283.717 40.768C285.125 40.768 286.277 41.248 287.173 42.208C288.133 43.104 288.613 44.256 288.613 45.664C288.613 47.008 288.133 48.16 287.173 49.12C286.277 50.016 285.125 50.464 283.717 50.464ZM306.576 101.344C305.424 101.344 304.24 100.896 303.024 100C301.872 99.104 300.88 98.016 300.048 96.736C299.28 95.456 298.896 94.24 298.896 93.088C298.896 91.04 299.44 89.44 300.528 88.288C301.616 87.136 303.344 86.08 305.712 85.12L315.504 81.088C316.784 80.576 317.52 80.128 317.712 79.744C317.968 79.36 318.128 78.528 318.192 77.248L318.384 71.104C318.448 69.44 317.968 68 316.944 66.784C315.984 65.568 314.576 64.96 312.72 64.96C311.76 64.96 310.8 65.12 309.84 65.44C308.88 65.76 308.08 66.176 307.44 66.688C307.056 66.944 306.8 67.328 306.672 67.84C306.544 68.352 306.48 68.896 306.48 69.472C306.48 69.728 306.48 70.016 306.48 70.336C306.544 70.656 306.576 70.944 306.576 71.2C306.576 71.52 306.16 71.968 305.328 72.544C304.56 73.056 303.664 73.536 302.64 73.984C301.68 74.368 300.88 74.56 300.24 74.56C299.92 74.56 299.664 74.496 299.472 74.368C299.28 74.176 299.184 73.952 299.184 73.696C299.184 72.672 299.504 71.584 300.144 70.432C300.848 69.216 301.808 68.096 303.024 67.072C304.496 65.728 306.096 64.544 307.824 63.52C309.552 62.496 311.248 61.696 312.912 61.12C314.576 60.544 316.048 60.256 317.328 60.256C319.632 60.256 321.52 61.088 322.992 62.752C324.528 64.352 325.264 66.368 325.2 68.8L324.72 91.84C324.656 93.184 324.944 94.272 325.584 95.104C326.288 95.936 327.152 96.352 328.176 96.352C329.776 96.352 330.96 96 331.728 95.296C332.048 94.976 332.304 94.816 332.496 94.816C332.816 94.816 333.072 94.912 333.264 95.104C333.456 95.296 333.552 95.552 333.552 95.872C333.552 96.576 333.2 97.28 332.496 97.984C331.472 99.008 330.352 99.808 329.136 100.384C327.984 101.024 326.896 101.344 325.872 101.344C322.928 101.344 320.592 99.68 318.864 96.352H318.576C316.464 98.08 314.448 99.328 312.528 100.096C310.608 100.928 308.624 101.344 306.576 101.344ZM311.088 96.736C312.368 96.736 313.456 96.544 314.352 96.16C315.248 95.712 316.048 95.136 316.752 94.432C317.072 94.112 317.328 93.696 317.52 93.184C317.776 92.608 317.936 91.712 318 90.496L318.192 85.792C318.256 85.088 318.224 84.576 318.096 84.256C317.968 83.936 317.712 83.776 317.328 83.776C317.2 83.776 316.976 83.808 316.656 83.872C316.336 83.936 315.92 84.064 315.408 84.256C312.016 85.472 309.648 86.752 308.304 88.096C307.024 89.376 306.384 90.56 306.384 91.648C306.384 93.312 306.864 94.592 307.824 95.488C308.848 96.32 309.936 96.736 311.088 96.736ZM337.912 100.288C337.336 100.288 336.856 100.192 336.472 100C336.152 99.872 335.992 99.616 335.992 99.232C335.992 98.72 336.184 98.4 336.568 98.272C336.952 98.08 337.496 97.888 338.2 97.696C339.16 97.44 340.088 97.088 340.984 96.64C341.88 96.192 342.328 95.328 342.328 94.048V73.408C342.328 71.68 342.136 70.208 341.752 68.992C341.432 67.776 340.44 66.944 338.776 66.496C338.52 66.368 338.296 66.24 338.104 66.112C337.912 65.92 337.816 65.632 337.816 65.248C337.816 64.544 338.104 64.16 338.68 64.096C340.92 63.52 342.744 62.816 344.152 61.984C345.56 61.152 346.936 60.224 348.28 59.2C348.472 59.072 348.632 58.976 348.76 58.912C348.952 58.784 349.144 58.72 349.336 58.72C349.464 58.72 349.56 58.784 349.624 58.912C349.752 59.04 349.816 59.2 349.816 59.392C349.816 59.84 349.72 60.768 349.528 62.176C349.4 63.52 349.336 64.64 349.336 65.536C349.336 65.792 349.336 66.048 349.336 66.304C349.4 66.496 349.464 66.624 349.528 66.688C351.768 64.576 354.136 62.976 356.632 61.888C359.192 60.8 361.976 60.256 364.984 60.256C368.12 60.256 370.712 61.536 372.76 64.096C374.808 66.656 375.832 69.824 375.832 73.6V94.048C375.832 95.328 376.28 96.192 377.176 96.64C378.072 97.024 379 97.376 379.96 97.696C380.472 97.888 380.952 98.112 381.4 98.368C381.911 98.56 382.167 98.912 382.167 99.424C382.167 99.808 381.944 100.032 381.496 100.096C381.048 100.224 380.632 100.288 380.248 100.288C378.968 100.288 377.976 100.224 377.272 100.096C376.568 100.032 375.896 99.968 375.256 99.904C374.616 99.84 373.72 99.808 372.568 99.808C371.48 99.808 370.584 99.84 369.88 99.904C369.176 99.968 368.44 100.032 367.672 100.096C366.968 100.224 365.976 100.288 364.696 100.288C364.376 100.288 363.96 100.224 363.448 100.096C363 100.032 362.776 99.808 362.776 99.424C362.776 98.912 363 98.56 363.448 98.368C363.96 98.112 364.472 97.888 364.984 97.696C365.944 97.376 366.872 97.024 367.768 96.64C368.664 96.192 369.112 95.328 369.112 94.048V73.888C369.112 71.072 368.312 68.896 366.712 67.36C365.176 65.76 363.096 64.928 360.472 64.864C358.168 64.864 356.152 65.248 354.424 66.016C352.696 66.72 351.16 67.616 349.816 68.704C349.56 68.96 349.368 69.312 349.24 69.76C349.112 70.144 349.048 70.528 349.048 70.912V94.048C349.048 95.328 349.496 96.192 350.392 96.64C351.288 97.088 352.216 97.44 353.176 97.696C354.648 98.08 355.384 98.592 355.384 99.232C355.384 99.616 355.224 99.872 354.904 100C354.584 100.192 354.104 100.288 353.464 100.288C352.184 100.288 351.16 100.224 350.392 100.096C349.688 100.032 349.016 99.968 348.376 99.904C347.736 99.84 346.84 99.808 345.688 99.808C344.6 99.808 343.704 99.84 343 99.904C342.36 99.968 341.656 100.032 340.888 100.096C340.184 100.224 339.192 100.288 337.912 100.288ZM404.854 101.44C401.654 101.44 398.742 100.64 396.118 99.04C393.558 97.376 391.51 95.136 389.974 92.32C388.502 89.44 387.766 86.24 387.766 82.72C387.766 78.56 388.662 74.784 390.454 71.392C392.31 68 394.774 65.312 397.846 63.328C400.918 61.28 404.31 60.256 408.022 60.256C412.182 60.256 415.83 61.376 418.966 63.616C419.734 64.192 420.118 64.8 420.118 65.44C420.118 65.952 419.894 66.528 419.446 67.168C418.998 67.808 418.454 68.352 417.814 68.8C417.174 69.184 416.566 69.376 415.99 69.376C415.67 69.376 415.35 69.28 415.03 69.088C414.71 68.832 414.358 68.576 413.974 68.32C412.566 67.232 410.998 66.208 409.27 65.248C407.542 64.288 406.102 63.808 404.95 63.808C401.814 63.808 399.254 65.28 397.27 68.224C395.35 71.104 394.39 74.912 394.39 79.648C394.39 82.656 395.03 85.376 396.31 87.808C397.654 90.24 399.414 92.16 401.59 93.568C403.83 94.976 406.294 95.68 408.982 95.68C410.838 95.68 412.438 95.392 413.782 94.816C415.126 94.176 416.566 93.088 418.102 91.552C418.23 91.424 418.39 91.328 418.582 91.264C418.774 91.136 418.934 91.072 419.062 91.072C419.766 91.072 420.118 91.52 420.118 92.416C420.118 92.8 419.99 93.248 419.734 93.76C419.542 94.208 419.19 94.752 418.678 95.392C417.654 96.672 416.438 97.792 415.03 98.752C413.622 99.648 412.054 100.32 410.326 100.768C408.662 101.216 406.838 101.44 404.854 101.44ZM427.769 127.36C426.553 127.36 425.433 127.04 424.409 126.4C423.385 125.824 422.873 124.832 422.873 123.424C422.873 122.272 423.129 121.248 423.641 120.352C424.217 119.52 425.017 119.104 426.041 119.104C426.745 119.104 427.417 119.2 428.057 119.392C428.761 119.584 429.369 119.68 429.881 119.68C430.265 119.68 430.585 119.584 430.841 119.392C431.161 119.264 431.449 119.008 431.705 118.624C432.409 117.472 433.209 116.032 434.105 114.304C435.065 112.576 436.025 110.624 436.985 108.448C438.009 106.272 438.969 103.968 439.865 101.536C440.057 100.96 440.153 100.224 440.153 99.328C440.153 98.816 440.121 98.336 440.057 97.888C439.993 97.376 439.897 96.928 439.769 96.544L428.633 68.416C428.185 67.264 427.577 66.272 426.809 65.44C426.105 64.544 425.273 63.968 424.313 63.712C423.801 63.52 423.289 63.296 422.777 63.04C422.329 62.784 422.105 62.432 422.105 61.984C422.105 61.6 422.329 61.376 422.777 61.312C423.289 61.184 423.705 61.12 424.025 61.12C425.305 61.12 426.233 61.152 426.809 61.216C427.449 61.28 428.025 61.376 428.537 61.504C429.113 61.568 429.945 61.6 431.033 61.6C432.185 61.6 433.049 61.568 433.625 61.504C434.201 61.376 434.809 61.28 435.449 61.216C436.089 61.152 437.049 61.12 438.329 61.12C438.713 61.12 439.129 61.216 439.577 61.408C440.025 61.536 440.249 61.792 440.249 62.176C440.249 62.624 439.897 63.072 439.193 63.52C438.553 63.904 437.977 64.16 437.465 64.288C436.825 64.48 436.345 64.832 436.025 65.344C435.705 65.792 435.545 66.464 435.545 67.36C435.545 67.744 435.641 68.224 435.833 68.8C436.025 69.312 436.185 69.728 436.313 70.048L444.089 89.248C444.217 89.632 444.409 89.824 444.665 89.824C444.857 89.824 445.017 89.632 445.145 89.248L451.769 71.68C451.961 71.232 452.121 70.656 452.249 69.952C452.441 69.184 452.537 68.576 452.537 68.128C452.537 66.912 452.345 66.08 451.961 65.632C451.641 65.12 451.193 64.736 450.617 64.48C450.105 64.224 449.497 63.904 448.793 63.52C448.153 63.072 447.833 62.624 447.833 62.176C447.833 61.792 448.057 61.536 448.505 61.408C449.017 61.216 449.433 61.12 449.753 61.12C450.649 61.12 451.545 61.216 452.441 61.408C453.401 61.536 454.777 61.6 456.569 61.6C457.785 61.6 458.649 61.568 459.161 61.504C459.737 61.376 460.217 61.28 460.601 61.216C460.985 61.152 461.529 61.12 462.233 61.12C462.553 61.12 462.937 61.184 463.385 61.312C463.897 61.376 464.153 61.6 464.153 61.984C464.153 62.432 463.897 62.784 463.385 63.04C462.937 63.296 462.457 63.52 461.945 63.712C460.985 63.968 459.961 64.736 458.873 66.016C457.785 67.232 456.921 68.608 456.281 70.144L443.225 101.248C443.161 101.44 442.809 102.272 442.169 103.744C441.593 105.216 440.857 107.04 439.961 109.216C439.065 111.392 438.073 113.728 436.985 116.224C435.961 118.72 434.969 121.12 434.009 123.424C433.433 124.704 432.601 125.664 431.513 126.304C430.425 127.008 429.177 127.36 427.769 127.36Z" fill="white"/>
</svg>
